<?xml version="1.0" encoding="UTF-8"?>
<svg id="Layer_2" data-name="Layer 2" xmlns="http://www.w3.org/2000/svg" viewBox="0 0 769.76 769.76">
  <defs>
    <style>
      .cls-1 {
        fill: #272727;
      }

      .cls-2 {
        fill: #f8f8f8;
      }
    </style>
  </defs>
  <g id="Layer_1-2" data-name="Layer 1">
    <circle class="cls-1" cx="384.88" cy="384.88" r="384.88"/>
    <g>
      <path class="cls-2" d="M620,149.76l-131.89,131.89h-78.72c-8.39,0-16.59.81-24.51,2.37-22.16,4.33-42.26,14.41-58.68,28.62-.01.01-.03.03-.06.04-4.57,3.97-8.86,8.27-12.82,12.83l-.04.04c-14.35,16.57-24.5,36.91-28.75,59.32-1.18,6.21-1.91,12.58-2.15,19.08h83.42l-216.05,216.05v-317.44l20.91-20.91,131.89-131.89h317.44Z"/>
      <line class="cls-2" x1="326.15" y1="312.68" x2="313.33" y2="325.52"/>
      <path class="cls-2" d="M620,268.78v351.22h-351.23l93.29-93.27c7.29,2.94,14.93,5.21,22.83,6.75,7.92,1.56,16.12,2.37,24.51,2.37,29.24,0,56.16-9.88,77.64-26.48,30.08-23.24,49.45-59.67,49.45-100.62v-56.44l83.53-83.53Z"/>
    </g>
  </g>
</svg>