<?xml version="1.0" encoding="UTF-8"?>
<svg id="Layer_2" data-name="Layer 2" xmlns="http://www.w3.org/2000/svg" viewBox="0 0 769.76 769.76">
  <defs>
    <style>
      .cls-1 {
        fill: #272727;
      }

      .cls-2 {
        fill: #f8f8f8;
      }
    </style>
  </defs>
  <g id="Layer_1-2" data-name="Layer 1">
    <circle class="cls-1" cx="384.88" cy="384.88" r="384.88"/>
    <g>
      <path class="cls-2" d="M592.03,177.73l-116.2,116.2h-69.36c-7.39,0-14.61.71-21.59,2.09-19.53,3.81-37.23,12.69-51.69,25.22,0,0-.03.03-.05.04-4.03,3.5-7.81,7.28-11.3,11.31l-.04.04c-12.64,14.6-21.58,32.52-25.33,52.26-1.04,5.47-1.69,11.08-1.89,16.81h73.49l-190.34,190.34v-279.67l18.42-18.42,116.2-116.2h279.67Z"/>
      <line class="cls-2" x1="333.14" y1="321.28" x2="321.84" y2="332.58"/>
      <path class="cls-2" d="M592.03,282.59v309.43h-309.44l82.19-82.18c6.42,2.59,13.15,4.59,20.11,5.95,6.98,1.37,14.2,2.09,21.59,2.09,25.76,0,49.48-8.71,68.4-23.33,26.51-20.47,43.56-52.57,43.56-88.65v-49.72l73.59-73.59Z"/>
    </g>
  </g>
</svg>